<mxfile host="app.diagrams.net" agent="Mozilla/5.0 (Windows NT 10.0; Win64; x64) AppleWebKit/537.36 (KHTML, like Gecko) Chrome/128.0.0.0 Safari/537.36 Edg/128.0.0.0" version="24.7.10">
  <diagram name="Page-1" id="t0HAGMEWk1PGnPud9-cK">
    <mxGraphModel dx="1386" dy="783" grid="1" gridSize="10" guides="1" tooltips="1" connect="1" arrows="1" fold="1" page="1" pageScale="1" pageWidth="850" pageHeight="1100" math="0" shadow="0">
      <root>
        <mxCell id="0" />
        <mxCell id="1" parent="0" />
        <mxCell id="HwObB4jm2zjHPUn75kL9-5" style="rounded=0;orthogonalLoop=1;jettySize=auto;html=1;" edge="1" parent="1" source="OSKH0DfVaSWMa6SUT9Fs-1" target="HwObB4jm2zjHPUn75kL9-2">
          <mxGeometry relative="1" as="geometry" />
        </mxCell>
        <mxCell id="OSKH0DfVaSWMa6SUT9Fs-1" value="DataDog" style="whiteSpace=wrap;html=1;aspect=fixed;fillColor=#dae8fc;strokeColor=#6c8ebf;shape=cube;boundedLbl=1;backgroundOutline=1;darkOpacity=0.05;darkOpacity2=0.1;" parent="1" vertex="1">
          <mxGeometry x="265" y="520" width="90" height="90" as="geometry" />
        </mxCell>
        <mxCell id="OSKH0DfVaSWMa6SUT9Fs-23" style="rounded=0;orthogonalLoop=1;jettySize=auto;html=1;" parent="1" source="OSKH0DfVaSWMa6SUT9Fs-2" target="OSKH0DfVaSWMa6SUT9Fs-1" edge="1">
          <mxGeometry relative="1" as="geometry" />
        </mxCell>
        <mxCell id="OSKH0DfVaSWMa6SUT9Fs-2" value="GCP" style="ellipse;shape=cloud;whiteSpace=wrap;html=1;" parent="1" vertex="1">
          <mxGeometry x="420" y="330" width="140" height="100" as="geometry" />
        </mxCell>
        <mxCell id="OSKH0DfVaSWMa6SUT9Fs-14" style="rounded=0;orthogonalLoop=1;jettySize=auto;html=1;" parent="1" source="OSKH0DfVaSWMa6SUT9Fs-4" target="OSKH0DfVaSWMa6SUT9Fs-10" edge="1">
          <mxGeometry relative="1" as="geometry" />
        </mxCell>
        <mxCell id="OSKH0DfVaSWMa6SUT9Fs-24" style="rounded=0;orthogonalLoop=1;jettySize=auto;html=1;startArrow=classic;startFill=1;dashed=1;" parent="1" source="OSKH0DfVaSWMa6SUT9Fs-4" target="OSKH0DfVaSWMa6SUT9Fs-6" edge="1">
          <mxGeometry relative="1" as="geometry" />
        </mxCell>
        <mxCell id="OSKH0DfVaSWMa6SUT9Fs-4" value="SonarQube" style="shape=label;whiteSpace=wrap;html=1;boundedLbl=1;backgroundOutline=1;darkOpacity=0.05;darkOpacity2=0.1;rounded=0;fillColor=#f8cecc;strokeColor=#b85450;" parent="1" vertex="1">
          <mxGeometry x="460" y="40" width="90" height="40" as="geometry" />
        </mxCell>
        <mxCell id="OSKH0DfVaSWMa6SUT9Fs-15" style="rounded=0;orthogonalLoop=1;jettySize=auto;html=1;" parent="1" source="OSKH0DfVaSWMa6SUT9Fs-5" target="OSKH0DfVaSWMa6SUT9Fs-10" edge="1">
          <mxGeometry relative="1" as="geometry" />
        </mxCell>
        <mxCell id="OSKH0DfVaSWMa6SUT9Fs-5" value="Confluence" style="shape=label;whiteSpace=wrap;html=1;boundedLbl=1;backgroundOutline=1;darkOpacity=0.05;darkOpacity2=0.1;rounded=0;fillColor=#f8cecc;strokeColor=#b85450;" parent="1" vertex="1">
          <mxGeometry x="320" y="60" width="90" height="40" as="geometry" />
        </mxCell>
        <mxCell id="OSKH0DfVaSWMa6SUT9Fs-16" style="rounded=0;orthogonalLoop=1;jettySize=auto;html=1;" parent="1" source="OSKH0DfVaSWMa6SUT9Fs-6" target="OSKH0DfVaSWMa6SUT9Fs-10" edge="1">
          <mxGeometry relative="1" as="geometry" />
        </mxCell>
        <mxCell id="OSKH0DfVaSWMa6SUT9Fs-6" value="Jira" style="shape=label;whiteSpace=wrap;html=1;boundedLbl=1;backgroundOutline=1;darkOpacity=0.05;darkOpacity2=0.1;rounded=0;fillColor=#f8cecc;strokeColor=#b85450;" parent="1" vertex="1">
          <mxGeometry x="620" y="40" width="60" height="40" as="geometry" />
        </mxCell>
        <mxCell id="OSKH0DfVaSWMa6SUT9Fs-17" style="rounded=0;orthogonalLoop=1;jettySize=auto;html=1;" parent="1" source="OSKH0DfVaSWMa6SUT9Fs-7" target="OSKH0DfVaSWMa6SUT9Fs-10" edge="1">
          <mxGeometry relative="1" as="geometry" />
        </mxCell>
        <mxCell id="OSKH0DfVaSWMa6SUT9Fs-7" value="Tools Portal" style="shape=label;whiteSpace=wrap;html=1;boundedLbl=1;backgroundOutline=1;darkOpacity=0.05;darkOpacity2=0.1;rounded=0;fillColor=#f8cecc;strokeColor=#b85450;" parent="1" vertex="1">
          <mxGeometry x="690" y="110" width="90" height="40" as="geometry" />
        </mxCell>
        <mxCell id="OSKH0DfVaSWMa6SUT9Fs-19" style="rounded=0;orthogonalLoop=1;jettySize=auto;html=1;" parent="1" source="OSKH0DfVaSWMa6SUT9Fs-8" target="OSKH0DfVaSWMa6SUT9Fs-18" edge="1">
          <mxGeometry relative="1" as="geometry" />
        </mxCell>
        <mxCell id="OSKH0DfVaSWMa6SUT9Fs-8" value="Polarion" style="shape=label;whiteSpace=wrap;html=1;boundedLbl=1;backgroundOutline=1;darkOpacity=0.05;darkOpacity2=0.1;rounded=0;fillColor=#f8cecc;strokeColor=#b85450;" parent="1" vertex="1">
          <mxGeometry x="130" y="230" width="100" height="40" as="geometry" />
        </mxCell>
        <mxCell id="OSKH0DfVaSWMa6SUT9Fs-12" style="rounded=0;orthogonalLoop=1;jettySize=auto;html=1;" parent="1" source="OSKH0DfVaSWMa6SUT9Fs-9" target="OSKH0DfVaSWMa6SUT9Fs-11" edge="1">
          <mxGeometry relative="1" as="geometry" />
        </mxCell>
        <mxCell id="OSKH0DfVaSWMa6SUT9Fs-9" value="jFrog - Artifactory" style="shape=label;whiteSpace=wrap;html=1;boundedLbl=1;backgroundOutline=1;darkOpacity=0.05;darkOpacity2=0.1;rounded=0;fillColor=#f8cecc;strokeColor=#b85450;" parent="1" vertex="1">
          <mxGeometry x="180" y="60" width="120" height="40" as="geometry" />
        </mxCell>
        <mxCell id="OSKH0DfVaSWMa6SUT9Fs-22" style="rounded=0;orthogonalLoop=1;jettySize=auto;html=1;" parent="1" source="OSKH0DfVaSWMa6SUT9Fs-10" target="OSKH0DfVaSWMa6SUT9Fs-2" edge="1">
          <mxGeometry relative="1" as="geometry" />
        </mxCell>
        <mxCell id="OSKH0DfVaSWMa6SUT9Fs-10" value="Kubernetes" style="shape=cube;whiteSpace=wrap;html=1;boundedLbl=1;backgroundOutline=1;darkOpacity=0.05;darkOpacity2=0.1;size=10;" parent="1" vertex="1">
          <mxGeometry x="450" y="200" width="110" height="60" as="geometry" />
        </mxCell>
        <mxCell id="OSKH0DfVaSWMa6SUT9Fs-13" style="rounded=0;orthogonalLoop=1;jettySize=auto;html=1;" parent="1" source="OSKH0DfVaSWMa6SUT9Fs-11" target="OSKH0DfVaSWMa6SUT9Fs-2" edge="1">
          <mxGeometry relative="1" as="geometry" />
        </mxCell>
        <mxCell id="OSKH0DfVaSWMa6SUT9Fs-11" value="Compute" style="shape=cube;whiteSpace=wrap;html=1;boundedLbl=1;backgroundOutline=1;darkOpacity=0.05;darkOpacity2=0.1;size=10;" parent="1" vertex="1">
          <mxGeometry x="260" y="200" width="100" height="60" as="geometry" />
        </mxCell>
        <mxCell id="OSKH0DfVaSWMa6SUT9Fs-20" style="rounded=0;orthogonalLoop=1;jettySize=auto;html=1;" parent="1" source="OSKH0DfVaSWMa6SUT9Fs-18" target="OSKH0DfVaSWMa6SUT9Fs-1" edge="1">
          <mxGeometry relative="1" as="geometry" />
        </mxCell>
        <mxCell id="OSKH0DfVaSWMa6SUT9Fs-18" value="On-Premise" style="shape=cube;whiteSpace=wrap;html=1;boundedLbl=1;backgroundOutline=1;darkOpacity=0.05;darkOpacity2=0.1;size=10;" parent="1" vertex="1">
          <mxGeometry x="230" y="350" width="100" height="60" as="geometry" />
        </mxCell>
        <mxCell id="OSKH0DfVaSWMa6SUT9Fs-30" style="rounded=0;orthogonalLoop=1;jettySize=auto;html=1;" parent="1" source="OSKH0DfVaSWMa6SUT9Fs-25" target="OSKH0DfVaSWMa6SUT9Fs-29" edge="1">
          <mxGeometry relative="1" as="geometry" />
        </mxCell>
        <mxCell id="OSKH0DfVaSWMa6SUT9Fs-25" value="GitHub.com" style="shape=cube;whiteSpace=wrap;html=1;boundedLbl=1;backgroundOutline=1;darkOpacity=0.05;darkOpacity2=0.1;size=10;" parent="1" vertex="1">
          <mxGeometry x="710" y="360" width="85" height="50" as="geometry" />
        </mxCell>
        <mxCell id="OSKH0DfVaSWMa6SUT9Fs-28" style="rounded=0;orthogonalLoop=1;jettySize=auto;html=1;" parent="1" source="OSKH0DfVaSWMa6SUT9Fs-27" target="OSKH0DfVaSWMa6SUT9Fs-25" edge="1">
          <mxGeometry relative="1" as="geometry" />
        </mxCell>
        <mxCell id="OSKH0DfVaSWMa6SUT9Fs-27" value="Zebra Org" style="shape=label;whiteSpace=wrap;html=1;boundedLbl=1;backgroundOutline=1;darkOpacity=0.05;darkOpacity2=0.1;rounded=0;fillColor=#f8cecc;strokeColor=#b85450;" parent="1" vertex="1">
          <mxGeometry x="660" y="250" width="90" height="40" as="geometry" />
        </mxCell>
        <mxCell id="HwObB4jm2zjHPUn75kL9-6" style="rounded=0;orthogonalLoop=1;jettySize=auto;html=1;" edge="1" parent="1" source="OSKH0DfVaSWMa6SUT9Fs-29" target="OSKH0DfVaSWMa6SUT9Fs-1">
          <mxGeometry relative="1" as="geometry" />
        </mxCell>
        <mxCell id="HwObB4jm2zjHPUn75kL9-8" style="rounded=0;orthogonalLoop=1;jettySize=auto;html=1;dashed=1;" edge="1" parent="1" source="OSKH0DfVaSWMa6SUT9Fs-29" target="HwObB4jm2zjHPUn75kL9-2">
          <mxGeometry relative="1" as="geometry" />
        </mxCell>
        <mxCell id="OSKH0DfVaSWMa6SUT9Fs-29" value="SaaS" style="ellipse;shape=cloud;whiteSpace=wrap;html=1;" parent="1" vertex="1">
          <mxGeometry x="530" y="630" width="100" height="70" as="geometry" />
        </mxCell>
        <mxCell id="HwObB4jm2zjHPUn75kL9-3" style="rounded=0;orthogonalLoop=1;jettySize=auto;html=1;" edge="1" parent="1" source="HwObB4jm2zjHPUn75kL9-1" target="OSKH0DfVaSWMa6SUT9Fs-29">
          <mxGeometry relative="1" as="geometry" />
        </mxCell>
        <mxCell id="HwObB4jm2zjHPUn75kL9-1" value="Gerrit" style="shape=cube;whiteSpace=wrap;html=1;boundedLbl=1;backgroundOutline=1;darkOpacity=0.05;darkOpacity2=0.1;size=10;" vertex="1" parent="1">
          <mxGeometry x="590" y="400" width="85" height="50" as="geometry" />
        </mxCell>
        <mxCell id="HwObB4jm2zjHPUn75kL9-2" value="Slack" style="shape=cube;whiteSpace=wrap;html=1;boundedLbl=1;backgroundOutline=1;darkOpacity=0.05;darkOpacity2=0.1;size=10;" vertex="1" parent="1">
          <mxGeometry x="322.5" y="710" width="85" height="50" as="geometry" />
        </mxCell>
      </root>
    </mxGraphModel>
  </diagram>
</mxfile>
